<?xml version="1.0" encoding="UTF-8" standalone="no"?>
<svg width="60px" height="60px" viewBox="0 0 60 60" version="1.1" xmlns="http://www.w3.org/2000/svg" xmlns:xlink="http://www.w3.org/1999/xlink" xmlns:sketch="http://www.bohemiancoding.com/sketch/ns">
    <!-- Generator: Sketch 3.2.2 (9983) - http://www.bohemiancoding.com/sketch -->
    <title>Fruit</title>
    <desc>Created with Sketch.</desc>
    <defs></defs>
    <g id="stroked" stroke="none" stroke-width="1" fill="none" fill-rule="evenodd" sketch:type="MSPage">
        <g id="Kitchen" sketch:type="MSLayerGroup" transform="translate(-847.000000, -118.000000)" stroke="#000000" stroke-width="2" stroke-linejoin="round">
            <g id="Fruit" transform="translate(857.000000, 118.000000)" sketch:type="MSShapeGroup">
                <circle id="Oval-634" stroke-linecap="round" cx="21" cy="37" r="21"></circle>
                <ellipse id="Oval-635" stroke-linecap="round" cx="21" cy="21" rx="2" ry="1"></ellipse>
                <path d="M21.2962605,20.9905119 C21.2962605,20.9905119 25.0155068,5.80217465 15.5491241,2.9010878" id="Path-1397" stroke-linecap="round"></path>
                <path d="M21.075758,6.12948998 C21.075758,6.12948998 35.7710636,-4.2269553 34.7468979,7.73368828 C34.0254391,16.1591911 21.075758,6.12948998 21.075758,6.12948998 Z" id="Path-1398" stroke-linecap="round" transform="translate(27.936903, 6.535435) rotate(162.000000) translate(-27.936903, -6.535435) "></path>
                <path d="M5,31 L5,33" id="Line"></path>
                <path d="M6,35 L6,37" id="Line"></path>
                <path d="M5,39 L5,41" id="Line"></path>
                <path d="M8,42 L8,44" id="Line"></path>
                <path d="M9,46 L9,48" id="Line"></path>
                <path d="M9,32 L9,34" id="Line"></path>
                <path d="M10,37 L10,39" id="Line"></path>
                <path d="M12,48 L12,50" id="Line"></path>
                <path d="M9,28 L9,30" id="Line"></path>
            </g>
        </g>
    </g>
</svg>