<?xml version="1.0" encoding="UTF-8" standalone="no"?>
<svg width="60px" height="60px" viewBox="0 0 60 60" version="1.1" xmlns="http://www.w3.org/2000/svg" xmlns:xlink="http://www.w3.org/1999/xlink" xmlns:sketch="http://www.bohemiancoding.com/sketch/ns">
    <!-- Generator: Sketch 3.2.2 (9983) - http://www.bohemiancoding.com/sketch -->
    <title>Coffeemaker</title>
    <desc>Created with Sketch.</desc>
    <defs></defs>
    <g id="stroked" stroke="none" stroke-width="1" fill="none" fill-rule="evenodd" sketch:type="MSPage">
        <g id="Kitchen" sketch:type="MSLayerGroup" transform="translate(-367.000000, -238.000000)" stroke="#717171" stroke-width="2" stroke-linejoin="round">
            <g id="Coffeemaker" transform="translate(374.000000, 241.000000)" sketch:type="MSShapeGroup">
                <path d="M0,54 L48,54" id="Line" stroke-linecap="square"></path>
                <path d="M10,15 L4,15 L4,54 L44,54 L44,15 L38,15 L38,27 L10,27 L10,15 Z" id="Rectangle-683" stroke-linecap="round"></path>
                <path d="M10,2 C10,2 17.1131744,-8.13271713e-16 24,0 C30.8868256,8.13271696e-16 38,2 38,2 L38,27 L10,27 L10,2 Z" id="Rectangle-685" stroke-linecap="round"></path>
                <path d="M21,30 L27,30" id="Line" stroke-linecap="square"></path>
                <rect id="Rectangle-686" stroke-linecap="round" x="18" y="38" width="12" height="14"></rect>
                <rect id="Rectangle-687" stroke-linecap="round" x="28" y="41" width="5" height="6"></rect>
                <ellipse id="Oval-660" stroke-linecap="round" transform="translate(24.000000, 14.000000) rotate(41.000000) translate(-24.000000, -14.000000) " cx="24" cy="14" rx="5" ry="7"></ellipse>
                <path d="M29.0667153,9.23985929 C29.0667153,9.23985929 25.8258786,11.1621582 23.7685449,13.8842792" id="Path-1487" stroke-linecap="round"></path>
            </g>
        </g>
    </g>
</svg>