<?xml version="1.0" encoding="UTF-8" standalone="no"?>
<svg width="60px" height="60px" viewBox="0 0 60 60" version="1.1" xmlns="http://www.w3.org/2000/svg" xmlns:xlink="http://www.w3.org/1999/xlink" xmlns:sketch="http://www.bohemiancoding.com/sketch/ns">
    <!-- Generator: Sketch 3.2.2 (9983) - http://www.bohemiancoding.com/sketch -->
    <title>Longcoat</title>
    <desc>Created with Sketch.</desc>
    <defs></defs>
    <g id="stroked" stroke="none" stroke-width="1" fill="none" fill-rule="evenodd" sketch:type="MSPage">
        <g id="Care" sketch:type="MSLayerGroup" transform="translate(-718.000000, -362.000000)" stroke="#000000" stroke-width="2" stroke-linejoin="round">
            <g id="Longcoat" transform="translate(721.000000, 365.000000)" sketch:type="MSShapeGroup">
                <path d="M12.7337079,6.3355781 L12.6276945,0.0407310562 L41.1905291,0.0407310562 L41.0886262,6.09151089 L41.0886262,6.09151089 L48.9290327,12.6531425 L53.7970126,43.3883585 L45.1808264,44.7530284 L40.8934052,17.6833163 L40.2979405,53.0407311 L13.5202831,53.0407311 L12.9532429,19.3710996 L8.93314032,44.7530284 L0.316954032,43.3883585 L5.18493401,12.6531425 L12.7337079,6.3355781 Z" id="Rectangle-1320" stroke-linecap="round"></path>
                <path d="M13,0 L41,0 L27,13 L13,0 Z" id="Triangle-41" stroke-linecap="round"></path>
                <path d="M20,0 L34,0 L27,13 L20,0 Z" id="Triangle-40" stroke-linecap="round"></path>
                <path d="M27,12 L27,53" id="Line" stroke-linecap="square"></path>
                <path d="M30,22 L32,22" id="Line" stroke-linecap="round"></path>
                <path d="M30,26 L32,26" id="Line-285" stroke-linecap="round"></path>
                <path d="M30,30 L32,30" id="Line-286" stroke-linecap="round"></path>
                <path d="M30,34 L32,34" id="Line-287" stroke-linecap="round"></path>
                <path d="M1.2731941,38.7452206 L9.62570505,40.1145201" id="Path-2553" stroke-linecap="round"></path>
                <path d="M44.647489,38.7452206 L53,40.1145201" id="Path-2553" stroke-linecap="round" transform="translate(48.823745, 39.429870) scale(-1, 1) translate(-48.823745, -39.429870) "></path>
            </g>
        </g>
    </g>
</svg>