<?xml version="1.0" encoding="UTF-8" standalone="no"?>
<svg width="60px" height="60px" viewBox="0 0 60 60" version="1.1" xmlns="http://www.w3.org/2000/svg" xmlns:xlink="http://www.w3.org/1999/xlink" xmlns:sketch="http://www.bohemiancoding.com/sketch/ns">
    <!-- Generator: Sketch 3.2.2 (9983) - http://www.bohemiancoding.com/sketch -->
    <title>Painting</title>
    <desc>Created with Sketch.</desc>
    <defs></defs>
    <g id="stroked" stroke="none" stroke-width="1" fill="none" fill-rule="evenodd" sketch:type="MSPage">
        <g id="Activities" sketch:type="MSLayerGroup" transform="translate(-14.000000, -238.000000)" stroke="#000000" stroke-width="2" stroke-linecap="round" stroke-linejoin="round">
            <g id="Painting" transform="translate(18.000000, 244.000000)" sketch:type="MSShapeGroup">
                <path d="M21.5675738,29.4762209 C14.3564487,28.7963291 17.6701936,21.9883051 22.3290039,19.5986271 C26.8515102,17.2788645 34.4547852,17.0656712 39.8369278,17.0656712 C54.0126484,17.065671 62.6439641,31.6574434 50.8801473,40.8738552 C47.182989,43.7704094 23.2643437,49.1000268 19.2314808,43.4068111 C15.3745904,37.9620166 36.4229856,31.968493 27.4468357,29.9826787 L21.5675738,29.4762209 Z" id="Path-1901" transform="translate(36.884213, 31.496354) rotate(55.000000) translate(-36.884213, -31.496354) "></path>
                <path d="M2,0 L8,0 L7,34 L3,34 L2,0 Z" id="Rectangle-956"></path>
                <circle id="Oval-812" cx="40" cy="23" r="3"></circle>
                <circle id="Oval-812" cx="45" cy="31" r="3"></circle>
                <circle id="Oval-812" cx="42" cy="41" r="3"></circle>
                <circle id="Oval-812" cx="32" cy="36" r="3"></circle>
                <path d="M5,51 C5,51 10,44.7614237 10,42 C10,39.2385763 7.76142375,37 5,37 C2.23857625,37 0,39.2385763 0,42 C0,44.7614237 5,51 5,51 Z" id="Oval-816"></path>
            </g>
        </g>
    </g>
</svg>